<svg xmlns="http://www.w3.org/2000/svg" viewBox="-23.2 -23.2 4002.4 1161.4" width="400.2" height="116.1" role="img">
  <title>Zoomda wordmark</title>
  <desc>Comfortaa Bold heavy "zoomda" — outlined paths with stroke for extra weight</desc>
  <g fill="#ffffff" stroke="#ffffff" stroke-width="46.43" stroke-linejoin="round" stroke-linecap="round" paint-order="stroke fill" transform="translate(0 881) scale(1 -1)">
    <path transform="translate(0.0 0)" d="M142 19 74 79 414 528 481 468ZM112 0Q65 0 65 47Q65 94 112 94H453Q500 94 500 47Q500 0 453 0ZM102 453Q55 453 55 500Q55 547 102 547H443Q490 547 490 500Q490 453 443 453Z"/>
    <path transform="translate(490.0 0)" d="M338 -4Q257 -4 195.0 31.5Q133 67 97.5 129.5Q62 192 62 273Q62 355 97.5 417.5Q133 480 195.0 515.5Q257 551 338 551Q418 551 480.0 515.5Q542 480 577.5 417.5Q613 355 613 273Q613 192 578.0 129.5Q543 67 481.0 31.5Q419 -4 338 -4ZM338 86Q390 86 430.0 110.0Q470 134 492.5 176.0Q515 218 515 273Q515 328 492.5 370.5Q470 413 430.0 437.0Q390 461 338 461Q286 461 246.0 437.0Q206 413 183.0 370.5Q160 328 160 273Q160 218 183.0 176.0Q206 134 246.0 110.0Q286 86 338 86Z"/>
    <path transform="translate(1115.0 0)" d="M338 -4Q257 -4 195.0 31.5Q133 67 97.5 129.5Q62 192 62 273Q62 355 97.5 417.5Q133 480 195.0 515.5Q257 551 338 551Q418 551 480.0 515.5Q542 480 577.5 417.5Q613 355 613 273Q613 192 578.0 129.5Q543 67 481.0 31.5Q419 -4 338 -4ZM338 86Q390 86 430.0 110.0Q470 134 492.5 176.0Q515 218 515 273Q515 328 492.5 370.5Q470 413 430.0 437.0Q390 461 338 461Q286 461 246.0 437.0Q206 413 183.0 370.5Q160 328 160 273Q160 218 183.0 176.0Q206 134 246.0 110.0Q286 86 338 86Z"/>
    <path transform="translate(1740.0 0)" d="M808 -1Q786 -1 771.5 13.5Q757 28 757 50V336Q757 399 726.0 429.5Q695 460 645 460Q593 460 559.5 424.0Q526 388 526 332H443Q443 397 471.0 446.5Q499 496 549.5 524.0Q600 552 665 552Q722 552 766.0 527.0Q810 502 834.5 453.5Q859 405 859 336V50Q859 28 845.0 13.5Q831 -1 808 -1ZM141 -1Q119 -1 104.5 13.5Q90 28 90 50V495Q90 518 104.5 532.0Q119 546 141 546Q164 546 178.0 532.0Q192 518 192 495V50Q192 28 178.0 13.5Q164 -1 141 -1ZM475 -1Q453 -1 438.5 13.5Q424 28 424 50V336Q424 399 393.0 429.5Q362 460 312 460Q260 460 226.0 424.0Q192 388 192 332H129Q129 397 155.0 446.5Q181 496 227.0 524.0Q273 552 332 552Q389 552 433.0 527.0Q477 502 501.5 453.5Q526 405 526 336V50Q526 28 512.0 13.5Q498 -1 475 -1Z"/>
    <path transform="translate(2628.0 0)" d="M338 -4Q260 -4 197.5 32.5Q135 69 98.5 132.0Q62 195 62 274Q62 353 95.5 415.5Q129 478 187.0 514.5Q245 551 318 551Q377 551 427.0 526.5Q477 502 511 460V730Q511 753 525.5 767.0Q540 781 562 781Q585 781 599.0 767.0Q613 753 613 730V274Q613 195 576.5 132.0Q540 69 478.0 32.5Q416 -4 338 -4ZM338 86Q389 86 429.0 110.5Q469 135 492.0 178.0Q515 221 515 274Q515 328 492.0 370.0Q469 412 429.0 436.5Q389 461 338 461Q288 461 247.5 436.5Q207 412 183.5 370.0Q160 328 160 274Q160 221 183.5 178.0Q207 135 247.5 110.5Q288 86 338 86Z"/>
    <path transform="translate(3281.0 0)" d="M318 -4Q245 -4 187.0 32.5Q129 69 95.5 131.5Q62 194 62 273Q62 352 98.5 415.0Q135 478 197.5 514.5Q260 551 338 551Q416 551 478.0 514.5Q540 478 576.5 415.0Q613 352 613 273H574Q574 194 540.5 131.5Q507 69 449.0 32.5Q391 -4 318 -4ZM338 86Q389 86 429.0 110.5Q469 135 492.0 177.5Q515 220 515 273Q515 327 492.0 369.5Q469 412 429.0 436.5Q389 461 338 461Q288 461 247.5 436.5Q207 412 183.5 369.5Q160 327 160 273Q160 220 183.5 177.5Q207 135 247.5 110.5Q288 86 338 86ZM562 -1Q540 -1 525.5 13.5Q511 28 511 50V203L530 309L613 273V50Q613 28 598.5 13.5Q584 -1 562 -1Z"/>
  </g>
</svg>
