<?xml version="1.0" encoding="UTF-8"?>
<svg id="_Слой_1" data-name="Слой 1" xmlns="http://www.w3.org/2000/svg" viewBox="0 0 1716.6 741.6">
  <defs>
    <style>
      .cls-1 {
        fill: #fff;
      }

      .cls-1, .cls-2 {
        fill-rule: evenodd;
      }

      .cls-2 {
        fill: #ffca30;
      }

      .cls-3 {
        fill: #ed2024;
      }

      .cls-4 {
        fill: #2c2e35;
      }
    </style>
  </defs>
  <path class="cls-4" d="M1716.6,0v741.6H0V0h1716.6Z"/>
  <path class="cls-3" d="M956.2,370.3c0,153.4,126.6,281.9,273.1,281.9h18c142.8,0,272.6-127.4,272.6-269.9v-20c0-150.5-132-272.9-282.6-272.9-73.3,0-147.5,31.3-197.9,81.2-50.8,50.3-83.2,126.3-83.2,199.7h0Z"/>
  <path class="cls-2" d="M844.2,193.6l58.6,6.8.4,260.1-59,4-.1-11.4c-4.7,1.4-38.4,30.2-84.6,4.8-62.7-34.6-52.2-153.6,32.4-170.7,24.2-5,32.9,1,52,1.9l.3-95.5ZM281.1,289.8h44.4c-1.3,16.4-3.8,39.1-9.4,54.4h-35l-.7,119.5-58.5-4.5-.4-115h-16.1l-8.6-54.4h25.9c.7-23.4-.4-35.3,1.8-54.1,14.2-63.3,89.5-51.1,111.5-30.5-4.5,12.2-11.7,33.3-19,43.4-15.1-5.1-38.4-24.3-35.9,41.2ZM392.8,396.8c1.6,14.9,19.5,22.5,36.3,23.3,24.5,1.2,30.2-7.6,47.9-11.3,4.3,5.6,14.3,33,15.5,41.2-18.9,11.5-32.5,18.4-61.5,19.2-116.4,3.3-132.4-136.9-48.3-175.3,52.4-23.8,140.1-3.1,124.3,102.7l-114.2.2ZM450.9,357.3c-2.6-16-11.4-23.6-29.7-22.9-16.1.5-27.7,8.7-30.7,22.9h60.4ZM586.7,397c1.9,15.4,18.8,22.4,36.5,23.2,22.6,1,30.6-6.1,48.1-11.7,4.6,13.1,12.1,27,15.4,41.5-109.4,63-196.3-34.3-151.5-117.6,46.7-86.9,195.7-47.3,165.5,63.5l-114,1.1ZM644.6,357.3c-2.3-16.1-11.7-23.4-29.3-23-16.7.4-27.4,8.9-31.2,23h60.5ZM821,412.2c14.8-3.7,18.8-8.2,24.2-14-.7-13.7-1-37.3-.1-51-2.8-5.2-24.7-9.3-35.8-5.8-42.3,11-33.5,77.8,11.7,70.8h0Z"/>
  <path class="cls-1" d="M1112.3,291.1c0,24.4,0,48.7-.1,73.2,0,21.8-2.8,52.8,24.8,49.8,28-3,25.3-22.4,25.3-49.8-.1-24.6-.5-49.3-.5-73.8,11-1.4,48.8-2.1,58.5.6l.1,169.2-58.6,3.5c0-3.3.8-13.6-.6-15.1-19.3,26.5-79.4,31.1-99.7-10.8-9.9-20.3-8.3-43.6-7.9-67.6l.5-73.1c12.7-2,47.3-7.6,58.2-6.1h0ZM1392.2,295.4c50.8,30.2,53.9,115.9,5.1,154.8-34.6,27.6-67.8,16.3-91.4,14.9l-1.1,77.1-57.6-4.5.1-247.9h58.5v10.5c20.8-11.8,50.7-26.7,86.4-4.9ZM1362.7,353c-9.7-13.9-32.2-17.3-48.3-5.6-12.8,9.4-9.1,34.5-8.5,60.5,51.1,25.2,77.3-25.5,56.8-54.9Z"/>
</svg>